<svg xmlns="http://www.w3.org/2000/svg" xmlns:xlink="http://www.w3.org/1999/xlink" preserveAspectRatio="none" width="100%" height="100%" fill="currentColor">
  <symbol viewBox="0 0 260 260" id="stabilizer-logo">
    <path d="M238.379,194.075 L238.257,193.983 C235.462,198.220 232.511,202.345 229.241,206.211 L215.826,186.090 C217.862,183.242 219.795,180.318 221.593,177.299 C222.620,175.595 223.548,173.828 224.481,172.063 C226.366,168.455 228.079,164.749 229.561,160.916 C234.239,148.926 237.058,136.006 237.058,122.347 C237.058,98.265 229.014,76.114 215.588,58.231 L226.782,35.841 C247.354,58.836 259.999,89.068 259.999,122.347 C259.999,148.872 252.016,173.511 238.379,194.075 ZM206.469,98.643 L76.470,259.995 L114.704,129.996 L61.175,129.996 L96.534,0.039 L216.506,-0.005 L164.887,98.643 L206.469,98.643 ZM57.352,38.232 C51.017,38.232 45.882,33.096 45.882,26.763 C45.882,20.426 51.017,15.291 57.352,15.291 C63.687,15.291 68.823,20.426 68.823,26.763 C68.823,33.096 63.687,38.232 57.352,38.232 ZM26.764,76.468 C20.429,76.468 15.293,71.332 15.293,64.996 C15.293,58.660 20.429,53.527 26.764,53.527 C33.099,53.527 38.235,58.660 38.235,64.996 C38.235,71.332 33.099,76.468 26.764,76.468 ZM23.384,114.702 L23.416,114.702 C23.235,117.245 22.940,119.758 22.940,122.347 C22.940,156.610 39.095,187.037 64.135,206.633 L52.283,226.384 C22.524,204.117 2.777,169.433 0.459,129.996 L0.385,129.996 C0.237,127.450 -0.001,124.930 -0.001,122.347 C-0.001,113.943 0.867,105.745 2.390,97.785 L23.627,110.526 C23.476,111.900 23.490,113.317 23.384,114.702 ZM141.469,229.408 C147.804,229.408 152.940,234.543 152.940,240.880 C152.940,247.213 147.804,252.349 141.469,252.349 C135.135,252.349 129.999,247.213 129.999,240.880 C129.999,234.543 135.135,229.408 141.469,229.408 ZM187.352,214.116 C193.687,214.116 198.823,219.249 198.823,225.584 C198.823,231.921 193.687,237.054 187.352,237.054 C181.017,237.054 175.881,231.921 175.881,225.584 C175.881,219.249 181.017,214.116 187.352,214.116 Z"></path>
  </symbol>
  <symbol viewBox="0 0 20 20" id="settings-icon">
    <path d="M16.959,7.233 C17.023,7.313 17.122,7.362 17.228,7.362 L17.363,7.362 C18.817,7.362 20.000,8.545 20.000,9.998 C20.000,11.452 18.817,12.636 17.363,12.636 C17.154,12.636 17.029,12.718 16.975,12.845 C16.911,12.988 16.939,13.140 17.040,13.243 C17.578,13.781 17.852,14.443 17.853,15.147 C17.853,15.851 17.580,16.514 17.082,17.013 C16.087,18.011 14.350,18.010 13.351,17.015 C13.186,16.852 13.052,16.846 12.923,16.903 C12.785,16.962 12.702,17.087 12.702,17.225 L12.702,17.362 C12.702,18.816 11.519,19.998 10.066,19.998 C8.612,19.998 7.429,18.816 7.429,17.362 C7.426,17.167 7.336,17.042 7.200,16.992 C6.899,16.865 6.857,16.939 6.757,17.038 C5.675,18.117 3.982,18.076 2.985,17.079 C2.488,16.583 2.213,15.922 2.212,15.216 C2.212,14.512 2.485,13.850 2.983,13.351 C3.126,13.207 3.154,13.054 3.095,12.922 C3.036,12.784 2.911,12.701 2.773,12.701 L2.636,12.701 C1.182,12.701 -0.000,11.518 -0.000,10.064 C-0.000,8.610 1.182,7.427 2.636,7.427 C2.831,7.425 2.957,7.335 3.007,7.198 C3.089,7.009 3.061,6.857 2.961,6.755 C1.891,5.686 1.890,4.013 2.917,2.985 C3.916,1.987 5.651,1.988 6.647,2.981 C6.814,3.146 6.949,3.152 7.077,3.094 C7.128,3.072 7.180,3.054 7.234,3.040 C7.314,2.975 7.363,2.876 7.364,2.769 L7.364,2.635 C7.364,1.181 8.546,-0.001 10.000,-0.001 C11.454,-0.001 12.636,1.181 12.636,2.635 C12.636,2.845 12.720,2.969 12.848,3.025 C13.006,3.093 13.144,3.058 13.246,2.958 C14.321,1.882 16.017,1.920 17.014,2.916 C17.513,3.414 17.788,4.077 17.788,4.781 C17.788,5.486 17.513,6.148 17.015,6.646 C16.873,6.792 16.845,6.943 16.904,7.075 C16.926,7.127 16.945,7.179 16.959,7.233 ZM15.546,5.288 C15.721,5.112 15.788,4.951 15.788,4.782 C15.788,4.612 15.721,4.453 15.601,4.333 C15.356,4.088 14.941,4.092 14.700,4.332 C13.934,5.081 12.916,5.239 12.051,4.859 C11.197,4.493 10.638,3.648 10.636,2.711 C10.636,2.284 10.351,1.998 10.000,1.998 C9.649,1.998 9.363,2.284 9.363,2.635 L9.363,2.774 C9.359,3.715 8.801,4.559 7.940,4.929 C7.861,4.962 7.778,4.986 7.694,4.998 C6.871,5.280 5.920,5.069 5.291,4.454 C4.937,4.099 4.574,4.157 4.334,4.396 C4.085,4.646 4.085,5.050 4.333,5.298 C5.066,6.046 5.250,7.063 4.861,7.947 C4.549,8.801 3.704,9.404 2.733,9.427 C2.285,9.427 2.000,9.713 2.000,10.064 C2.000,10.415 2.285,10.701 2.636,10.701 L2.775,10.701 C3.716,10.703 4.561,11.262 4.930,12.127 C5.315,12.998 5.131,14.016 4.456,14.706 C4.151,15.013 4.150,15.417 4.398,15.664 C4.640,15.907 5.060,15.905 5.300,15.665 C5.798,15.176 6.382,14.938 7.000,14.938 C7.329,14.938 7.649,15.006 7.950,15.139 C8.802,15.449 9.406,16.294 9.428,17.265 C9.429,17.713 9.715,17.998 10.066,17.998 C10.416,17.998 10.702,17.713 10.702,17.362 L10.702,17.223 C10.704,16.284 11.262,15.438 12.127,15.069 C12.966,14.699 14.032,14.881 14.709,15.544 C15.059,15.896 15.425,15.842 15.665,15.601 C15.786,15.479 15.853,15.319 15.853,15.148 C15.853,14.978 15.787,14.819 15.666,14.699 C14.932,13.949 14.749,12.931 15.141,12.046 C15.505,11.196 16.349,10.637 17.288,10.635 C17.714,10.635 18.000,10.349 18.000,9.998 C18.000,9.648 17.714,9.362 17.363,9.362 L17.224,9.362 C16.283,9.359 15.439,8.800 15.070,7.938 C15.036,7.859 15.013,7.778 15.001,7.694 C14.712,6.855 14.917,5.931 15.546,5.288 ZM10.000,12.998 C8.342,12.998 7.000,11.654 7.000,9.998 C7.000,8.342 8.342,6.999 10.000,6.999 C11.656,6.999 13.000,8.342 13.000,9.998 C13.000,11.654 11.656,12.998 10.000,12.998 ZM10.000,8.999 C9.448,8.999 9.000,9.447 9.000,9.998 C9.000,10.550 9.448,10.999 10.000,10.999 C10.552,10.999 11.000,10.550 11.000,9.998 C11.000,9.447 10.552,8.999 10.000,8.999 Z"></path>
  </symbol>
  <symbol viewBox="0 0 18 20" id="bell-icon">
    <path d="M17.947,15.283 C17.812,15.708 17.436,16.001 17.002,16.001 L0.975,16.001 C0.534,16.001 0.145,15.705 0.017,15.271 C-0.112,14.837 0.049,14.367 0.414,14.113 C0.422,14.107 2.644,12.367 2.644,6.605 C2.644,2.962 5.490,-0.002 8.988,-0.002 C12.487,-0.002 15.333,2.962 15.333,6.605 C15.333,12.368 17.555,14.107 17.578,14.124 C17.928,14.387 18.081,14.859 17.947,15.283 ZM13.330,6.605 C13.330,4.100 11.382,2.063 8.988,2.063 C6.595,2.063 4.648,4.100 4.648,6.605 C4.648,10.208 3.851,12.526 3.063,13.936 L14.915,13.936 C14.127,12.526 13.330,10.208 13.330,6.605 ZM6.571,17.143 C7.140,16.860 7.866,17.031 8.192,17.527 C8.273,17.651 8.389,17.754 8.528,17.824 C8.738,17.931 8.982,17.958 9.217,17.907 C9.457,17.852 9.658,17.716 9.784,17.525 C10.110,17.030 10.833,16.861 11.405,17.144 C11.973,17.429 12.170,18.059 11.843,18.554 C11.399,19.226 10.681,19.706 9.825,19.903 C9.545,19.967 9.262,19.999 8.981,19.999 C8.404,19.999 7.836,19.866 7.326,19.605 C6.831,19.353 6.417,18.988 6.130,18.551 C5.805,18.057 6.002,17.427 6.571,17.143 Z"></path>
  </symbol>
  <symbol viewBox="0 0 20 20" id="messages-icon">
    <path d="M12.000,17.998 L8.000,17.998 C6.138,17.998 4.588,16.720 4.141,14.998 L6.278,14.998 C6.625,15.593 7.263,15.998 8.000,15.998 L12.000,15.998 L12.246,15.998 L12.484,16.059 L18.000,17.437 L18.000,13.999 L18.000,8.999 C18.000,8.261 17.594,7.623 17.000,7.276 L17.000,5.140 C18.721,5.586 20.000,7.137 20.000,8.999 L20.000,13.999 L20.000,19.998 L12.000,17.998 ZM12.000,12.998 L8.000,12.998 L-0.000,14.998 L-0.000,8.999 L-0.000,3.998 C-0.000,1.789 1.791,-0.001 4.000,-0.001 L12.000,-0.001 C14.209,-0.001 16.000,1.789 16.000,3.998 L16.000,8.999 C16.000,11.207 14.209,12.998 12.000,12.998 ZM14.000,3.998 C14.000,2.896 13.102,1.998 12.000,1.998 L4.000,1.998 C2.897,1.998 2.000,2.896 2.000,3.998 L2.000,8.999 L2.000,12.437 L7.515,11.058 L7.754,10.999 L8.000,10.999 L12.000,10.999 C13.102,10.999 14.000,10.102 14.000,8.999 L14.000,3.998 ZM11.013,5.998 L4.987,5.998 C4.442,5.998 4.000,5.556 4.000,5.010 L4.000,4.986 C4.000,4.441 4.442,3.998 4.987,3.998 L11.013,3.998 C11.557,3.998 12.000,4.441 12.000,4.986 L12.000,5.010 C12.000,5.556 11.557,5.998 11.013,5.998 ZM4.953,6.999 L9.047,6.999 C9.573,6.999 10.000,7.425 10.000,7.951 L10.000,8.046 C10.000,8.572 9.573,8.999 9.047,8.999 L4.953,8.999 C4.427,8.999 4.000,8.572 4.000,8.046 L4.000,7.951 C4.000,7.425 4.427,6.999 4.953,6.999 Z"></path>
  </symbol>
  <symbol viewBox="0 0 20 20" id="message-icon">
    <path d="M15,2c1.654,0,3,1.257,3,2.803v6.404c0,1.546-1.346,2.803-3,2.803H7.98H7.508l-0.422,0.211L2,16.764v-5.557V10V4.803C2,3.257,3.346,2,5,2H15 M15,0H5C2.238,0,0,2.15,0,4.803V10v1.207V20l7.98-3.99H15c2.762,0,5-2.15,5-4.803V4.803C20,2.15,17.762,0,15,0L15,0z"></path>
    <path d="M14,5H6C5.447,5,5,5.448,5,6c0,0.553,0.447,1,1,1h8c0.553,0,1-0.447,1-1C15,5.448,14.553,5,14,5z M10,9H6c-0.553,0-1,0.447-1,1s0.447,1,1,1h4c0.553,0,1-0.447,1-1S10.553,9,10,9z"></path>
  </symbol>
  <symbol viewBox="0 0 20 20" id="smile-icon">
    <path d="M10.000,19.998 C4.476,19.998 -0.000,15.522 -0.000,9.998 C-0.000,4.476 4.476,-0.001 10.000,-0.001 C15.522,-0.001 20.000,4.476 20.000,9.998 C20.000,15.522 15.522,19.998 10.000,19.998 ZM10.000,1.998 C5.582,1.998 2.000,5.580 2.000,9.998 C2.000,14.417 5.582,17.998 10.000,17.998 C14.418,17.998 18.000,14.417 18.000,9.998 C18.000,5.580 14.418,1.998 10.000,1.998 ZM13.000,6.999 L15.000,6.999 L15.000,8.999 L13.000,8.999 L13.000,6.999 ZM10.000,14.998 C7.581,14.998 5.564,13.281 5.100,10.999 L7.183,10.999 C7.596,12.161 8.695,12.998 10.000,12.998 C11.304,12.998 12.403,12.161 12.816,10.999 L14.899,10.999 C14.435,13.281 12.419,14.998 10.000,14.998 ZM5.000,6.999 L7.000,6.999 L7.000,8.999 L5.000,8.999 L5.000,6.999 Z"></path>
  </symbol>
  <symbol viewBox="0 0 18 20" id="bag-icon">
    <path d="M15.974,19.998 L2.024,19.998 C0.906,19.998 -0.000,19.046 -0.000,18.153 L0.692,6.454 C0.692,5.561 1.805,3.998 2.924,3.998 L5.000,3.998 L5.000,3.892 C5.000,1.741 6.742,-0.001 8.892,-0.001 L9.107,-0.001 C11.257,-0.001 13.000,1.741 13.000,3.892 L13.000,3.998 L15.075,3.998 C16.193,3.998 17.307,5.561 17.307,6.454 L18.000,18.153 C18.000,19.046 17.093,19.998 15.974,19.998 ZM11.000,3.892 C11.000,2.847 10.097,1.998 9.053,1.998 L9.000,1.998 L8.892,1.998 C7.849,1.998 7.000,2.847 7.000,3.892 L7.000,3.998 L11.000,3.998 L11.000,3.892 ZM15.311,6.571 L15.310,6.555 C15.251,6.385 15.052,6.115 14.904,5.998 L13.000,5.998 L13.000,7.999 L11.000,7.999 L11.000,5.998 L7.000,5.998 L7.000,7.999 L5.000,7.999 L5.000,5.998 L3.095,5.998 C2.947,6.115 2.748,6.385 2.690,6.555 L2.689,6.571 L2.013,17.992 C2.019,17.996 2.024,17.998 2.029,17.998 L15.974,17.998 C15.977,17.998 15.982,17.996 15.987,17.992 L15.311,6.571 Z"></path>
  </symbol>
  <symbol viewBox="0 0 20 18" id="index-icon">
    <path d="M16.000,17.999 L4.000,17.999 C1.791,17.999 -0.000,16.208 -0.000,13.999 L-0.000,9.999 L-0.000,7.999 L-0.000,3.999 C-0.000,1.790 1.791,-0.001 4.000,-0.001 L16.000,-0.001 C18.209,-0.001 20.000,1.790 20.000,3.999 L20.000,7.999 L20.000,9.999 L20.000,13.999 C20.000,16.208 18.209,17.999 16.000,17.999 ZM18.000,3.999 C18.000,2.896 17.102,1.999 16.000,1.999 L4.000,1.999 C2.897,1.999 2.000,2.896 2.000,3.999 L2.000,7.999 L18.000,7.999 L18.000,3.999 ZM18.000,9.999 L2.000,9.999 L2.000,13.999 C2.000,15.102 2.897,15.999 4.000,15.999 L16.000,15.999 C17.102,15.999 18.000,15.102 18.000,13.999 L18.000,9.999 ZM13.000,11.999 L15.000,11.999 L15.000,13.999 L13.000,13.999 L13.000,11.999 ZM9.000,11.999 L11.000,11.999 L11.000,13.999 L9.000,13.999 L9.000,11.999 ZM5.000,11.999 L7.000,11.999 L7.000,13.999 L5.000,13.999 L5.000,11.999 ZM15.000,5.999 L5.000,5.999 L5.000,3.999 L15.000,3.999 L15.000,5.999 Z"></path>
  </symbol>
  <symbol viewBox="0 0 20 20" id="forum-icon">
    <path d="M16.000,15.998 L14.000,15.998 L10.000,19.998 L6.000,15.998 L4.000,15.998 C1.791,15.998 -0.000,14.407 -0.000,12.443 L-0.000,7.999 L-0.000,5.999 L-0.000,3.554 C-0.000,1.591 1.791,-0.001 4.000,-0.001 L16.000,-0.001 C18.209,-0.001 20.000,1.591 20.000,3.554 L20.000,5.999 L20.000,7.999 L20.000,12.443 C20.000,14.407 18.209,15.998 16.000,15.998 ZM18.000,3.554 C18.000,2.711 17.084,1.999 16.000,1.999 L4.000,1.999 C2.916,1.999 2.000,2.711 2.000,3.554 L2.000,5.999 L18.000,5.999 L18.000,3.554 ZM18.000,7.999 L2.000,7.999 L2.000,12.443 C2.000,13.286 2.916,13.999 4.000,13.999 L6.000,13.999 L6.828,13.999 L7.414,14.584 L10.000,17.170 L12.586,14.584 L13.172,13.999 L14.000,13.999 L16.000,13.999 C17.084,13.999 18.000,13.286 18.000,12.443 L18.000,7.999 ZM6.000,4.999 L4.000,4.999 L4.000,2.999 L6.000,2.999 L6.000,4.999 ZM9.000,4.999 L7.000,4.999 L7.000,2.999 L9.000,2.999 L9.000,4.999 ZM12.000,4.999 L10.000,4.999 L10.000,2.999 L12.000,2.999 L12.000,4.999 Z"></path>
  </symbol>
  <symbol viewBox="0 0 20 20" id="calendar-icon">
    <path d="M16.000,19.999 L4.000,19.999 C1.791,19.999 -0.000,18.208 -0.000,15.998 L-0.000,9.998 L-0.000,7.998 L-0.000,5.999 C-0.000,3.789 1.791,1.998 4.000,1.998 L5.000,1.998 L5.000,-0.001 L7.000,-0.001 L7.000,1.998 L13.000,1.998 L13.000,-0.001 L15.000,-0.001 L15.000,1.998 L16.000,1.998 C18.209,1.998 20.000,3.789 20.000,5.999 L20.000,7.998 L20.000,9.998 L20.000,15.998 C20.000,18.208 18.209,19.999 16.000,19.999 ZM18.000,5.999 C18.000,4.896 17.102,3.998 16.000,3.998 L15.000,3.998 L15.000,5.999 L13.000,5.999 L13.000,3.998 L7.000,3.998 L7.000,5.999 L5.000,5.999 L5.000,3.998 L4.000,3.998 C2.897,3.998 2.000,4.896 2.000,5.999 L2.000,7.998 L18.000,7.998 L18.000,5.999 ZM18.000,9.998 L2.000,9.998 L2.000,15.998 C2.000,17.101 2.897,17.999 4.000,17.999 L16.000,17.999 C17.102,17.999 18.000,17.101 18.000,15.998 L18.000,9.998 Z"></path>
  </symbol>
  <symbol viewBox="0 0 20 20" id="addfriend-icon">
    <path d="M10,13c-1.305,0-2.403-0.838-2.816-2H5.101c0.464,2.282,2.48,4,4.899,4s4.436-1.718,4.899-4h-2.083C12.403,12.162,11.305,13,10,13z M7,7H5v2h2V7z M13,7v2h2V7H13z"></path>
    <polygon points="20,2 18,2 18,0 16,0 16,2 14,2 14,4 16,4 16,6 18,6 18,4 20,4"></polygon>
    <path d="M17.738,8C17.903,8.64,18,9.308,18,10c0,4.418-3.582,8-8,8s-8-3.582-8-8c0-4.418,3.582-8,8-8c0.692,0,1.359,0.097,2,0.262V0.201C11.354,0.07,10.685,0,10,0C4.477,0,0,4.478,0,10 c0,5.523,4.477,10,10,10c5.522,0,10-4.477,10-10c0-0.685-0.069-1.354-0.201-2H17.738z"></path>
  </symbol>
  <symbol viewBox="0 0 20 20" id="removefriend-icon">
    <path d="M10,13c-1.305,0-2.403-0.838-2.816-2H5.101c0.464,2.282,2.48,4,4.899,4s4.436-1.718,4.899-4h-2.083C12.403,12.162,11.305,13,10,13z M7,7H5v2h2V7z M13,7v2h2V7H13z"></path>
    <path d="M17.738,8C17.903,8.64,18,9.308,18,10c0,4.418-3.582,8-8,8s-8-3.582-8-8c0-4.418,3.582-8,8-8c0.692,0,1.359,0.097,2,0.262V0.201C11.354,0.07,10.685,0,10,0C4.477,0,0,4.478,0,10 c0,5.523,4.477,10,10,10c5.522,0,10-4.477,10-10c0-0.685-0.069-1.354-0.201-2H17.738z"></path>
    <rect x="14" y="2" width="6" height="2"></rect>
  </symbol>
  <symbol viewBox="0 0 20 20" id="search-icon">
    <path d="M19.170,19.170 C18.618,19.722 17.893,19.998 17.169,19.998 C16.445,19.998 15.720,19.722 15.168,19.170 L12.034,16.036 C12.647,15.727 13.224,15.357 13.748,14.922 L16.582,17.756 C16.794,17.967 17.041,17.998 17.170,17.998 C17.298,17.998 17.545,17.967 17.756,17.756 C18.080,17.431 18.080,16.905 17.756,16.580 L14.924,13.746 C15.358,13.224 15.728,12.646 16.037,12.032 L19.170,15.167 C20.276,16.272 20.276,18.064 19.170,19.170 ZM8.000,15.998 C3.581,15.998 -0.000,12.416 -0.000,7.999 C-0.000,3.580 3.581,-0.001 8.000,-0.001 C12.418,-0.001 16.000,3.580 16.000,7.999 C16.000,12.416 12.418,15.998 8.000,15.998 ZM8.000,1.999 C4.691,1.999 2.000,4.690 2.000,7.999 C2.000,11.307 4.691,13.999 8.000,13.999 C11.308,13.999 14.000,11.307 14.000,7.999 C14.000,4.690 11.308,1.999 8.000,1.999 Z"></path>
  </symbol>
  <symbol viewBox="0 0 22 6" id="tdot-icon">
    <path d="M19.000,5.999 C17.343,5.999 16.000,4.656 16.000,2.999 C16.000,1.342 17.343,-0.001 19.000,-0.001 C20.657,-0.001 22.000,1.342 22.000,2.999 C22.000,4.656 20.657,5.999 19.000,5.999 ZM19.000,1.999 C18.448,1.999 18.000,2.447 18.000,2.999 C18.000,3.551 18.448,3.999 19.000,3.999 C19.552,3.999 20.000,3.551 20.000,2.999 C20.000,2.447 19.552,1.999 19.000,1.999 ZM11.000,5.999 C9.343,5.999 8.000,4.656 8.000,2.999 C8.000,1.342 9.343,-0.001 11.000,-0.001 C12.657,-0.001 14.000,1.342 14.000,2.999 C14.000,4.656 12.657,5.999 11.000,5.999 ZM11.000,1.999 C10.448,1.999 10.000,2.447 10.000,2.999 C10.000,3.551 10.448,3.999 11.000,3.999 C11.552,3.999 12.000,3.551 12.000,2.999 C12.000,2.447 11.552,1.999 11.000,1.999 ZM3.000,5.999 C1.343,5.999 -0.000,4.656 -0.000,2.999 C-0.000,1.342 1.343,-0.001 3.000,-0.001 C4.657,-0.001 6.000,1.342 6.000,2.999 C6.000,4.656 4.657,5.999 3.000,5.999 ZM3.000,1.999 C2.448,1.999 2.000,2.447 2.000,2.999 C2.000,3.551 2.448,3.999 3.000,3.999 C3.552,3.999 4.000,3.551 4.000,2.999 C4.000,2.447 3.552,1.999 3.000,1.999 Z"></path>
  </symbol>
  <symbol viewBox="0 0 21 17" id="paneltoggle-icon">
    <path d="M17.000,14.998 L17.000,12.998 L19.000,12.998 L19.000,14.998 L17.000,14.998 ZM13.000,6.998 L19.000,6.998 L19.000,8.998 L13.000,8.998 L13.000,6.998 ZM5.000,0.998 L19.000,0.998 L19.000,2.998 L5.000,2.998 L5.000,0.998 ZM1.000,0.998 L3.000,0.998 L3.000,2.998 L1.000,2.998 L1.000,0.998 ZM7.000,8.998 L1.000,8.998 L1.000,6.998 L7.000,6.998 L7.000,8.998 ZM11.000,6.998 L11.000,8.998 L9.000,8.998 L9.000,6.998 L11.000,6.998 ZM15.000,14.998 L1.000,14.998 L1.000,12.998 L15.000,12.998 L15.000,14.998 Z"></path>
  </symbol>
  <symbol viewBox="0 0 85.5 94.5" id="hexagon-dotted">
    <path stroke-width="1px" stroke-dasharray="4, 2" stroke-linecap="butt" stroke-linejoin="miter"
     d="M84.506,66.436 C84.506,69.043 82.642,72.258 80.293,73.581 L46.789,92.480 C44.443,93.801 40.617,93.801 38.272,92.480 L4.746,73.581 C2.402,72.258 0.488,69.043 0.488,66.436 L0.488,28.508 C0.488,25.902 2.408,22.686 4.753,21.363 L38.285,2.466 C40.630,1.144 44.469,1.144 46.815,2.466 L80.293,21.363 C82.642,22.686 84.506,25.902 84.506,28.508 L84.506,66.436 Z"/>
  </symbol>
  <symbol viewBox="0 0 1757 2315" id="question-circle">
    <path d="M828.754,0.099 C976.030,-1.284 1108.350,9.913 1218.257,46.672 C1256.387,59.425 1293.672,74.783 1328.334,90.070 C1354.715,101.705 1379.785,113.449 1403.483,128.176 C1434.009,147.145 1462.934,168.361 1491.333,189.568 C1504.950,199.736 1516.003,214.335 1529.437,224.497 C1546.868,237.684 1567.066,257.866 1580.242,275.305 C1585.164,281.819 1593.290,286.745 1598.235,293.299 C1611.989,311.529 1627.441,328.641 1640.572,347.281 C1655.608,368.625 1666.877,391.074 1680.793,413.966 C1705.269,454.229 1720.933,501.302 1736.890,550.510 C1743.858,571.998 1745.276,595.826 1750.649,618.253 C1752.413,636.951 1754.178,655.654 1755.942,674.352 C1755.942,685.289 1755.942,696.229 1755.942,707.165 C1758.386,722.440 1756.223,751.297 1752.766,766.440 C1749.753,779.638 1751.782,790.953 1748.533,803.487 C1740.543,834.305 1735.640,865.613 1724.189,893.458 C1700.029,952.206 1672.248,1003.679 1637.397,1051.172 C1623.361,1070.299 1606.233,1087.215 1591.884,1106.213 C1586.342,1113.551 1577.298,1119.024 1571.774,1126.324 C1559.349,1142.745 1543.871,1156.348 1529.437,1170.781 C1517.595,1182.622 1506.947,1195.510 1493.450,1205.711 C1487.100,1212.414 1480.748,1219.119 1474.398,1225.822 C1448.831,1245.168 1428.115,1269.925 1402.425,1289.331 C1391.132,1297.861 1382.005,1310.419 1370.672,1318.968 C1330.614,1349.183 1295.318,1385.061 1255.302,1415.290 C1239.712,1427.068 1227.665,1443.602 1211.907,1455.512 C1201.166,1463.630 1187.369,1480.546 1179.095,1491.501 C1173.733,1498.601 1165.418,1504.427 1160.043,1511.612 C1143.732,1533.419 1127.154,1556.196 1117.706,1584.647 C1108.717,1611.715 1108.645,1642.278 1101.830,1672.501 C1101.477,1681.321 1101.124,1690.144 1100.771,1698.963 C1095.935,1720.806 1097.595,1750.253 1097.596,1774.116 C1097.597,1807.573 1102.310,1831.624 1074.310,1838.683 C964.244,1838.683 854.145,1838.683 744.079,1838.683 C716.690,1838.685 650.054,1844.319 638.236,1830.215 C630.048,1820.445 630.827,1804.021 630.827,1785.759 C630.474,1760.358 630.121,1734.949 629.768,1709.548 C629.757,1594.081 643.259,1489.112 677.398,1406.822 C701.682,1348.285 734.368,1301.417 769.481,1254.401 C783.712,1235.347 803.972,1220.243 818.169,1201.477 C830.927,1184.613 847.870,1167.653 864.740,1154.903 C869.326,1149.964 873.914,1145.024 878.500,1140.085 C886.819,1132.171 895.744,1124.818 904.961,1117.857 C915.848,1109.633 924.713,1097.519 935.655,1089.278 C967.226,1065.499 996.023,1038.868 1027.739,1015.184 C1036.319,1008.777 1043.552,999.380 1052.083,992.956 C1079.111,972.601 1102.461,948.700 1129.349,928.388 C1136.667,922.860 1142.155,913.801 1149.459,908.277 C1171.825,891.364 1194.667,868.824 1210.848,845.827 C1229.621,819.146 1243.216,788.109 1253.186,752.680 C1255.647,743.932 1254.264,736.766 1256.361,727.277 C1259.405,713.502 1260.835,687.323 1257.419,672.235 C1254.392,658.863 1256.629,647.427 1253.186,635.189 C1240.134,588.806 1221.126,555.248 1196.030,521.931 C1187.361,510.422 1174.782,498.902 1163.219,490.177 C1152.120,481.801 1142.049,470.783 1130.407,462.656 C1100.679,441.905 1064.648,428.394 1026.681,416.083 C1007.918,409.999 987.144,409.096 967.408,404.439 C961.058,404.087 954.707,403.734 948.357,403.381 C927.642,398.888 877.600,397.538 856.273,402.323 C848.865,402.675 841.454,403.028 834.046,403.381 C808.828,409.230 783.232,410.532 759.955,418.200 C669.543,447.982 603.934,497.874 554.619,568.504 C525.029,610.885 504.682,663.072 486.880,716.692 C479.326,739.441 476.454,786.439 458.302,797.136 C450.660,801.640 435.901,800.617 425.490,798.195 C403.531,793.086 379.651,795.088 356.692,789.727 C343.497,786.646 328.695,787.781 314.355,784.435 C265.070,772.935 210.090,775.644 160.882,764.323 C143.267,760.271 125.337,761.767 109.019,757.973 C82.553,751.819 26.664,755.184 9.526,742.095 C3.258,737.308 4.256,729.059 0.000,721.984 C2.117,700.464 4.234,678.937 6.351,657.417 C10.231,636.602 14.113,615.781 17.993,594.966 C33.714,539.948 50.145,488.430 74.090,442.545 C177.255,244.854 332.800,117.499 558.853,42.439 C600.720,28.537 645.933,23.788 691.157,12.801 C707.331,8.872 724.317,9.980 739.845,6.450 C761.717,4.686 783.596,2.922 805.468,1.158 C812.559,-0.426 823.460,3.410 828.754,0.099 ZM1097.821,1926.537 L630.523,1926.537 L630.523,2315.000 L1097.821,2315.000 L1097.821,1926.537 Z"/>
  </symbol>
  <symbol viewBox="-35 -35 270 270" id="circle-b">
    <circle cx="100" cy="100" r="100" stroke-width="70" fill="transparent"></circle>
  </symbol>
  <symbol viewBox="0 0200 200" id="circle-a">
    <circle cx="50%" cy="50%" r="50%"></circle>
  </symbol>
  <symbol viewBox="0 0 20 20" id="paper-plane">
    <path d="M19.991,0.942 C19.986,0.851 19.968,0.764 19.939,0.678 C19.928,0.646 19.918,0.616 19.904,0.584 C19.855,0.478 19.795,0.376 19.709,0.290 C19.623,0.204 19.521,0.144 19.415,0.095 C19.383,0.081 19.353,0.071 19.322,0.060 C19.236,0.031 19.149,0.014 19.059,0.009 C19.032,0.007 19.007,0.002 18.979,0.002 C18.876,0.004 18.772,0.018 18.672,0.054 L0.672,6.353 C0.285,6.489 0.020,6.847 0.003,7.256 C-0.014,7.666 0.221,8.044 0.596,8.211 L8.343,11.656 L11.787,19.404 C11.948,19.766 12.307,19.997 12.701,19.997 C12.715,19.997 12.728,19.997 12.742,19.996 C13.151,19.980 13.509,19.715 13.645,19.328 L19.946,1.328 C19.981,1.227 19.996,1.123 19.998,1.019 C19.998,0.993 19.992,0.968 19.991,0.942 ZM15.196,3.389 L8.879,9.705 L3.713,7.408 L15.196,3.389 ZM12.591,16.287 L10.294,11.119 L16.610,4.803 L12.591,16.287 Z"/>
  </symbol>
  <symbol viewBox="0 0 20 20" id="groups-icon">
    <path d="M20.000,8.049 L20.000,10.049 C17.764,10.049 15.950,8.236 15.950,5.999 C15.950,3.762 17.764,1.949 20.000,1.949 L20.000,3.949 C18.870,3.949 17.950,4.869 17.950,5.999 C17.950,7.129 18.870,8.049 20.000,8.049 ZM10.000,9.999 C7.238,9.999 5.000,7.761 5.000,4.999 C5.000,2.237 7.238,-0.001 10.000,-0.001 C12.761,-0.001 15.000,2.237 15.000,4.999 C15.000,7.761 12.761,9.999 10.000,9.999 ZM10.000,1.999 C8.346,1.999 7.000,3.345 7.000,4.999 C7.000,6.654 8.346,7.999 10.000,7.999 C11.654,7.999 13.000,6.654 13.000,4.999 C13.000,3.345 11.654,1.999 10.000,1.999 ZM-0.000,10.049 L-0.000,8.049 C1.000,8.049 2.050,7.129 2.050,5.999 C2.050,4.869 1.000,3.949 -0.000,3.949 L-0.000,1.949 C2.000,1.949 4.050,3.762 4.050,5.999 C4.050,8.236 2.000,10.049 -0.000,10.049 ZM7.000,11.999 L13.000,11.999 C16.313,11.999 19.000,14.685 19.000,17.999 L19.000,19.999 L17.000,19.999 L17.000,17.999 C17.000,15.793 15.206,13.999 13.000,13.999 L7.000,13.999 C4.794,13.999 3.000,15.793 3.000,17.999 L3.000,19.999 L1.000,19.999 L1.000,17.999 C1.000,14.685 3.686,11.999 7.000,11.999 Z"/>
  </symbol>
  <symbol viewBox="0 0 20 20" id="info-b-icon">
    <path d="M9,15h2V9H9V15z M9,7h2V5H9V7z M16-0.001H4c-2.209,0-4,1.791-4,4v12c0,2.209,1.791,4,4,4h12c2.209,0,4-1.791,4-4v-12C20,1.79,18.209-0.001,16-0.001z M18,15.999C18,17.102,17.103,18,16,18H4c-1.103,0-2-0.898-2-2.001v-12c0-1.103,0.897-2,2-2h12c1.103,0,2,0.897,2,2V15.999z"/>
  </symbol>
  <symbol viewBox="0 0 20 20" id="notification-icon">
    <path d="M18.583,14.127c-0.023-0.018-2.241-1.758-2.241-7.52C16.342,2.964,13.497,0,10.004,0C6.511,0,3.668,2.964,3.668,6.607c0,5.762-2.22,7.502-2.228,7.508c-0.365,0.254-0.525,0.725-0.397,1.158c0.129,0.434,0.517,0.73,0.957,0.73h16.007c0.433,0,0.81-0.293,0.943-0.719C19.086,14.861,18.932,14.389,18.583,14.127zM4.086,13.939C4.873,12.527,5.67,10.21,5.67,6.607c0-2.505,1.945-4.542,4.334-4.542c2.391,0,4.335,2.038,4.335,4.542c0,3.603,0.796,5.92,1.583,7.333H4.086z M12.418,17.146c-0.57-0.283-1.293-0.115-1.619,0.381c-0.126,0.191-0.327,0.326-0.567,0.383c-0.234,0.051-0.478,0.023-0.688-0.084c-0.138-0.07-0.255-0.174-0.336-0.297c-0.325-0.496-1.05-0.668-1.618-0.385c-0.568,0.283-0.766,0.914-0.44,1.408c0.286,0.438,0.7,0.803,1.194,1.055C8.854,19.867,9.421,20,9.997,20c0.281,0,0.564-0.031,0.843-0.096c0.856-0.197,1.573-0.676,2.016-1.348C13.182,18.061,12.984,17.432,12.418,17.146z"/>
  </symbol>
  <symbol viewBox="0 0 20 20" id="thumbs-up-icon">
    <path d="M15.896,19.999c-0.01,0-0.021,0-0.03,0H2.826C1.268,19.999,0,18.743,0,17.201v-6.302c0-1.543,1.269-2.797,2.826-2.797h2.096l3.391-7.515C8.473,0.229,8.83,0,9.223,0c2.063,0,3.742,1.659,3.742,3.698l0.026,2.3h4.996c0.152-0.003-0.149-0.023,0,0c0.753,0.111,1.962,0.245,1.999,1c0.037,0.757-0.011,2.143,0,3.003l-1.295,7.624C18.483,18.982,17.284,19.999,15.896,19.999z M6.995,18.005h8.881c0.003,0,0.007,0,0.01,0c0.418,0,0.77-0.292,0.83-0.684l1.262-8.106c0.031-0.205-0.02-0.412-0.145-0.583c-0.132-0.178-0.621-0.601-0.845-0.634c-0.045-0.008,0.045-0.006,0,0h-4.996c-0.553,0-1-1.451-1-2.001l-0.026-2.3c0-0.733-0.477-1.36-1.144-1.6l-2.828,6.9V18.005z M2.997,10c-0.456,0-0.999,0.457-0.999,0.899v6.302c0,0.442,0.371,0.804,0.827,0.804h2.17V10H2.997z"/>
  </symbol>
  <symbol viewBox="0 0 32 32" id="quote-icon">
    <path d="M12.998,5l-1-5C3.897,0.622,0,4.275,0,12.904V22h10.998V11H6.997C6.597,7.035,8.106,5.854,12.998,5z M32,5l-1.001-5c-8.1,0.622-11.998,4.275-11.998,12.904V22h10.998V11h-4C25.599,7.035,27.107,5.854,32,5z"/>
  </symbol>
  <symbol viewBox="0 0 12 12" id="cross-icon">
    <path d="M12,9.6L9.6,12L6,8.399L2.4,12L0,9.6L3.6,6L0,2.4L2.4,0L6,3.6L9.6,0L12,2.4L8.399,6L12,9.6z"/>
  </symbol>
  <symbol viewBox="0 0 8 8" id="plus-icon">
    <path d="M8,5H5v3H3V5H0V3h3V0h2v3h3V5z"/>
  </symbol>
  <symbol viewBox="0 0 8 8" id="minus-icon">
    <rect y="3" width="8" height="2"></rect>
  </symbol>
  <symbol viewBox="0 0 16 16" id="plus-circle-icon">
    <path d="M8.000,15.998 C3.581,15.998 -0.000,12.416 -0.000,7.998 C-0.000,3.580 3.581,-0.001 8.000,-0.001 C12.418,-0.001 16.000,3.580 16.000,7.998 C16.000,12.416 12.418,15.998 8.000,15.998 ZM8.000,1.998 C4.686,1.998 2.000,4.684 2.000,7.998 C2.000,11.312 4.686,13.998 8.000,13.998 C11.313,13.998 14.000,11.312 14.000,7.998 C14.000,4.684 11.313,1.998 8.000,1.998 ZM9.000,10.998 L7.000,10.998 L7.000,8.998 L5.000,8.998 L5.000,6.998 L7.000,6.998 L7.000,4.998 L9.000,4.998 L9.000,6.998 L11.000,6.998 L11.000,8.998 L9.000,8.998 L9.000,10.998 Z"></path>
  </symbol>
  <symbol viewBox="0 0 16 16" id="minus-circle-icon">
    <path d="M8.000,15.998 C3.581,15.998 -0.000,12.417 -0.000,7.999 C-0.000,3.579 3.581,-0.002 8.000,-0.002 C12.418,-0.002 16.000,3.579 16.000,7.999 C16.000,12.417 12.418,15.998 8.000,15.998 ZM8.000,1.998 C4.686,1.998 2.000,4.684 2.000,7.999 C2.000,11.312 4.686,13.998 8.000,13.998 C11.313,13.998 14.000,11.312 14.000,7.999 C14.000,4.684 11.313,1.998 8.000,1.998 ZM5.000,6.998 L11.000,6.998 L11.000,8.998 L5.000,8.998 L5.000,6.998 Z"></path>
  </symbol>
  <symbol viewBox="0 0 20 20" id="user-icon">
    <path d="M10,10c2.762,0,5-2.238,5-5c0-2.762-2.238-5-5-5S5,2.238,5,5C5,7.761,7.238,10,10,10z M10,2c1.654,0,3,1.346,3,3s-1.346,3-3,3S7,6.654,7,5S8.346,2,10,2z M13,12H7c-3.313,0-6,2.686-6,6v2h2v-2c0-2.205,1.794-4,4-4h6c2.206,0,4,1.795,4,4v2h2v-2C19,14.686,16.313,12,13,12z"></path>
  </symbol>
  <symbol viewBox="0 0 20 20" id="user-circle-icon">
    <path d="M10,2c4.418,0,8,3.582,8,8c0,4.418-3.582,8-8,8c-4.418,0-8-3.582-8-8C2,5.582,5.582,2,10,2 M10,0C4.486,0,0,4.486,0,10c0,5.514,4.486,10,10,10c5.514,0,10-4.486,10-10C20,4.486,15.514,0,10,0L10,0z"></path>
    <path d="M10,7c0.551,0,1,0.449,1,1s-0.449,1-1,1S9,8.551,9,8S9.449,7,10,7 M10,5C8.343,5,7,6.343,7,8c0,1.656,1.343,3,3,3c1.656,0,3-1.344,3-3C13,6.343,11.656,5,10,5L10,5z"></path>
    <path d="M14.866,15.025C14.43,13.29,12.871,12,11,12H9c-1.871,0-3.43,1.29-3.866,3.025C5.678,15.553,6.308,15.988,7,16.317V16c0-1.104,0.897-2,2-2h2c1.103,0,2,0.896,2,2v0.317C13.692,15.988,14.322,15.553,14.866,15.025z"></path>
  </symbol>
  <symbol viewBox="0 0 20 20" id="stat-bars-icon">
    <path d="M18,8v10h-2V8H18 M18,6h-2c-1.104,0-2,0.896-2,2v10c0,1.104,0.896,2,2,2h2c1.104,0,2-0.896,2-2V8C20,6.896,19.104,6,18,6L18,6z"></path>
    <path d="M11,2v16H9V2H11 M11,0H9C7.896,0,7,0.896,7,2v16c0,1.104,0.896,2,2,2h2c1.104,0,2-0.896,2-2V2C13,0.896,12.104,0,11,0L11,0z"></path>
    <path d="M4,14v4H2v-4H4 M4,12H2c-1.104,0-2,0.896-2,2v4c0,1.104,0.896,2,2,2h2c1.104,0,2-0.896,2-2v-4C6,12.896,5.104,12,4,12L4,12z"></path>
  </symbol>
  <symbol viewBox="0 0 20 20" id="file-text-icon">
    <path d="M10.969,0H5C2.791,0,1,1.791,1,4v12c0,2.209,1.791,4,4,4h10c2.209,0,4-1.791,4-4V8.125L10.969,0z M11,2.877L16.064,8H13c-1.104,0-2-0.897-2-2V2.877z M15,18H5c-1.103,0-2-0.897-2-2V4c0-1.103,0.897-2,2-2h4v4c0,2.209,1.791,4,4,4h4v6C17,17.103,16.103,18,15,18z"></path>
    <path d="M13,14H7c-0.553,0-1,0.447-1,1s0.447,1,1,1h6c0.552,0,1-0.447,1-1S13.552,14,13,14z"></path>
  </symbol>
  <symbol viewBox="0 0 8 12" id="right-angle-icon">
    <path d="M6.399,7.5L6.399,7.5L1.6,12L0,10.5L4.8,6L0,1.5L1.6,0L8,6L6.399,7.5z"></path>
  </symbol>
  <symbol viewBox="0 0 20 20" id="pin-icon">
    <path d="M10,2c3.309,0,6,2.773,6,6.182c0,4.78-4.517,9.104-5.994,9.768C8.557,17.272,4,12.836,4,8.182C4,4.773,6.691,2,10,2 M10,0C5.581,0,2,3.663,2,8.182C2,14.291,8.192,20,10,20c1.807,0,8-5.596,8-11.818C18,3.663,14.418,0,10,0L10,0z"></path>
    <path d="M10,6c1.103,0,2,0.897,2,2c0,1.103-0.897,2-2,2c-1.103,0-2-0.897-2-2C8,6.897,8.897,6,10,6 M10,4C7.791,4,6,5.791,6,8s1.791,4,4,4s4-1.791,4-4S12.209,4,10,4L10,4z"></path>
  </symbol>
  <symbol viewBox="0 0 20 20" id="lock-icon">
    <path d="M11,11H9c-0.553,0-1,0.447-1,1s0.447,1,1,1v1c0,0.553,0.447,1,1,1s1-0.447,1-1v-1c0.553,0,1-0.447,1-1S11.553,11,11,11z"></path>
    <path d="M16,6.142V6c0-3.313-2.687-6-6-6S4,2.687,4,6v0.142C2.278,6.588,1,8.139,1,10v6c0,2.209,1.791,4,4,4h10c2.209,0,4-1.791,4-4v-6C19,8.139,17.722,6.588,16,6.142z M10,2c2.206,0,4,1.794,4,4H6C6,3.794,7.794,2,10,2z M17,16c0,1.103-0.897,2-2,2H5c-1.103,0-2-0.897-2-2v-6c0-1.103,0.897-2,2-2h10c1.103,0,2,0.897,2,2V16z"></path>
  </symbol>
  <symbol viewBox="0 0 469.333 469.333" id="cake-icon">
    <path d="M234.56,128c23.573,0,42.667-19.093,42.667-42.667c0-8-2.24-15.573-6.08-21.973L234.56,0l-36.587,63.36 c-3.84,6.4-6.08,13.973-6.08,21.973C191.893,108.907,210.987,128,234.56,128z"></path>
    <path d="M362.56,192L362.56,192H255.893v-42.667h-42.667V192H106.56c-35.307,0-64,28.693-64,64v32.853 c0,23.04,18.773,41.813,41.813,41.813c11.2,0,21.653-4.373,29.547-12.267l45.653-45.547l45.547,45.44 c15.787,15.787,43.307,15.787,59.093,0l45.653-45.44l45.547,45.44c7.893,7.893,18.347,12.267,29.547,12.267 c23.04,0,41.813-18.773,41.813-41.813V256C426.56,220.693,397.867,192,362.56,192z"></path>
    <path d="M332.587,341.013L332.587,341.013l-22.933-22.933l-23.04,22.933c-27.84,27.84-76.48,27.84-104.32,0L159.36,318.08 l-23.04,22.933c-13.76,13.973-32.213,21.653-51.947,21.653c-15.467,0-29.867-4.907-41.813-13.12V448 c0,11.733,9.6,21.333,21.333,21.333h341.333c11.733,0,21.333-9.6,21.333-21.333v-98.453c-11.947,8.213-26.24,13.12-41.813,13.12 C365.013,362.667,346.56,354.987,332.587,341.013z"></path>
  </symbol>
  <symbol viewBox="0 0 24 24" id="clamp-icon">
    <path d="M17 5v12c0 2.757-2.243 5-5 5s-5-2.243-5-5v-12c0-1.654 1.346-3 3-3s3 1.346 3 3v9c0 .551-.449 1-1 1s-1-.449-1-1v-8h-2v8c0 1.657 1.343 3 3 3s3-1.343 3-3v-9c0-2.761-2.239-5-5-5s-5 2.239-5 5v12c0 3.866 3.134 7 7 7s7-3.134 7-7v-12h-2z"></path>
  </symbol>
  <symbol viewBox="0 0 24 24" id="ban-icon">
    <path d="M12 0c-6.627 0-12 5.373-12 12s5.373 12 12 12 12-5.373 12-12-5.373-12-12-12zm9 12c0 1.94-.624 3.735-1.672 5.207l-12.535-12.535c1.472-1.048 3.267-1.672 5.207-1.672 4.962 0 9 4.038 9 9zm-18 0c0-1.94.624-3.735 1.672-5.207l12.534 12.534c-1.471 1.049-3.266 1.673-5.206 1.673-4.962 0-9-4.038-9-9z"></path>
  </symbol>
  <symbol viewBox="0 0 448 512" id="copy-icon">
    <path d="M433.941 65.941l-51.882-51.882A48 48 0 0 0 348.118 0H176c-26.51 0-48 21.49-48 48v48H48c-26.51 0-48 21.49-48 48v320c0 26.51 21.49 48 48 48h224c26.51 0 48-21.49 48-48v-48h80c26.51 0 48-21.49 48-48V99.882a48 48 0 0 0-14.059-33.941zM266 464H54a6 6 0 0 1-6-6V150a6 6 0 0 1 6-6h74v224c0 26.51 21.49 48 48 48h96v42a6 6 0 0 1-6 6zm128-96H182a6 6 0 0 1-6-6V54a6 6 0 0 1 6-6h106v88c0 13.255 10.745 24 24 24h88v202a6 6 0 0 1-6 6zm6-256h-64V48h9.632c1.591 0 3.117.632 4.243 1.757l48.368 48.368a6 6 0 0 1 1.757 4.243V112z"></path>
  </symbol>
  <symbol viewBox="0 0 24 24" id="heart-icon">
    <path d="M6.28 3c3.236.001 4.973 3.491 5.72 5.031.75-1.547 2.469-5.021 5.726-5.021 2.058 0 4.274 1.309 4.274 4.182 0 3.442-4.744 7.851-10 13-5.258-5.151-10-9.559-10-13 0-2.676 1.965-4.193 4.28-4.192zm.001-2c-3.183 0-6.281 2.187-6.281 6.192 0 4.661 5.57 9.427 12 15.808 6.43-6.381 12-11.147 12-15.808 0-4.011-3.097-6.182-6.274-6.182-2.204 0-4.446 1.042-5.726 3.238-1.285-2.206-3.522-3.248-5.719-3.248z"></path>
  </symbol>
  <symbol viewBox="0 0 448 448.04455" id="moon-icon">
    <path d="m224.023438 448.03125c85.714843.902344 164.011718-48.488281 200.117187-126.230469-22.722656 9.914063-47.332031 14.769531-72.117187 14.230469-97.15625-.109375-175.890626-78.84375-176-176 .972656-65.71875 37.234374-125.832031 94.910156-157.351562-15.554688-1.980469-31.230469-2.867188-46.910156-2.648438-123.714844 0-224.0000005 100.289062-224.0000005 224 0 123.714844 100.2851565 224 224.0000005 224zm0 0"></path>
  </symbol>
  <symbol viewBox="0 0 24 24" id="sun-icon">
    <path d="M4.069 13h-4.069v-2h4.069c-.041.328-.069.661-.069 1s.028.672.069 1zm3.034-7.312l-2.881-2.881-1.414 1.414 2.881 2.881c.411-.529.885-1.003 1.414-1.414zm11.209 1.414l2.881-2.881-1.414-1.414-2.881 2.881c.528.411 1.002.886 1.414 1.414zm-6.312-3.102c.339 0 .672.028 1 .069v-4.069h-2v4.069c.328-.041.661-.069 1-.069zm0 16c-.339 0-.672-.028-1-.069v4.069h2v-4.069c-.328.041-.661.069-1 .069zm7.931-9c.041.328.069.661.069 1s-.028.672-.069 1h4.069v-2h-4.069zm-3.033 7.312l2.88 2.88 1.415-1.414-2.88-2.88c-.412.528-.886 1.002-1.415 1.414zm-11.21-1.415l-2.88 2.88 1.414 1.414 2.88-2.88c-.528-.411-1.003-.885-1.414-1.414zm6.312-10.897c-3.314 0-6 2.686-6 6s2.686 6 6 6 6-2.686 6-6-2.686-6-6-6z"></path>
  </symbol>
  <symbol viewBox="0 0 465.882 465.882" id="at-icon">
    <path d="m232.941 0c-128.442 0-232.941 104.499-232.941 232.941s104.499 232.941 232.941 232.941c40.961 0 81.239-10.777 116.499-31.179l-29.146-50.416c-26.416 15.284-56.629 23.36-87.353 23.36-96.338 0-174.706-78.368-174.706-174.706s78.368-174.706 174.706-174.706 174.706 78.368 174.706 174.706v25.364c0 19.052-12.241 32.871-29.118 32.871-16.052 0-29.118-13.066-29.118-29.118v-116.47h-40.251c-20.484-17.895-46.948-29.118-76.219-29.118-64.221 0-116.471 52.25-116.471 116.471s52.25 116.471 116.471 116.471c30.582 0 58.232-12.094 79.036-31.442 16.036 19.057 39.754 31.442 66.552 31.442 48.98 0 87.353-40.022 87.353-91.107v-25.364c0-128.442-104.499-232.941-232.941-232.941zm0 291.176c-32.118 0-58.235-26.118-58.235-58.235 0-32.118 26.118-58.235 58.235-58.235 32.118 0 58.235 26.118 58.235 58.235 0 32.118-26.117 58.235-58.235 58.235z"></path>
  </symbol>
  <symbol viewBox="0 0 512 512" id="envelope-icon">
    <path d="M467,61H45C20.218,61,0,81.196,0,106v300c0,24.72,20.128,45,45,45h422c24.72,0,45-20.128,45-45V106
			C512,81.28,491.872,61,467,61z M460.786,91L256.954,294.833L51.359,91H460.786z M30,399.788V112.069l144.479,143.24L30,399.788z
			 M51.213,421l144.57-144.57l50.657,50.222c5.864,5.814,15.327,5.795,21.167-0.046L317,277.213L460.787,421H51.213z M482,399.787
			L338.213,256L482,112.212V399.787z"></path>
  </symbol>
</svg>
		